<svg width="576" height="512" viewBox="0 0 576 512" fill="none" xmlns="http://www.w3.org/2000/svg">
<g clip-path="url(#clip0)">
<path d="M504.717 320H211.572L218.117 352H486.535C501.936 352 513.351 366.301 509.938 381.319L504.421 405.595C523.112 414.668 536 433.828 536 456C536 487.202 510.481 512.444 479.176 511.994C449.353 511.565 424.826 487.363 424.021 457.547C423.581 441.26 430.106 426.498 440.824 415.999H231.176C241.553 426.165 248 440.326 248 456C248 487.813 221.472 513.431 189.33 511.938C160.79 510.613 137.579 487.553 136.079 459.021C134.921 436.987 146.515 417.566 164.13 407.435L93.883 64H24C10.745 64 0 53.255 0 40V24C0 10.745 10.745 0 24 0H126.529C137.93 0 147.757 8.021 150.042 19.19L159.208 64H551.99C567.391 64 578.806 78.301 575.393 93.319L528.12 301.319C525.637 312.246 515.923 320 504.717 320ZM408 168H360V128C360 119.163 352.837 112 344 112H328C319.163 112 312 119.163 312 128V168H264C255.163 168 248 175.163 248 184V200C248 208.837 255.163 216 264 216H312V256C312 264.837 319.163 272 328 272H344C352.837 272 360 264.837 360 256V216H408C416.837 216 424 208.837 424 200V184C424 175.163 416.837 168 408 168Z" fill="#019386"/>
</g>
<defs>
<clipPath id="clip0">
<rect width="576" height="512" fill="white"/>
</clipPath>
</defs>
</svg>
