<svg width="512" height="512" viewBox="0 0 512 512" fill="none" xmlns="http://www.w3.org/2000/svg">
<g clip-path="url(#clip0)">
<path d="M511.1 378.8L484.4 218.8C481.8 203.4 468.5 192.1 452.8 192.1H208V128.1H304C312.8 128.1 320 120.9 320 112.1V16C320 7.2 312.8 0 304 0H47.9999C39.1999 0 31.9999 7.2 31.9999 16V112C31.9999 120.8 39.1999 128 47.9999 128H144V192H59.0999C43.4999 192 30.0999 203.3 27.4999 218.7L0.799902 378.7C0.199902 382.2 -0.100098 385.7 -0.100098 389.2V480C-0.100098 497.7 14.1999 512 31.8999 512H479.9C497.6 512 511.9 497.7 511.9 480V389.3C512 385.8 511.7 382.3 511.1 378.8V378.8ZM280 248C280 239.2 287.2 232 296 232H312C320.8 232 328 239.2 328 248V264C328 272.8 320.8 280 312 280H296C287.2 280 280 272.8 280 264V248ZM248 312H264C272.8 312 280 319.2 280 328V344C280 352.8 272.8 360 264 360H248C239.2 360 232 352.8 232 344V328C232 319.2 239.2 312 248 312ZM216 232C224.8 232 232 239.2 232 248V264C232 272.8 224.8 280 216 280H200C191.2 280 184 272.8 184 264V248C184 239.2 191.2 232 200 232H216ZM79.9999 80V48H272V80H79.9999ZM120 280H104C95.1999 280 87.9999 272.8 87.9999 264V248C87.9999 239.2 95.1999 232 104 232H120C128.8 232 136 239.2 136 248V264C136 272.8 128.8 280 120 280ZM136 344V328C136 319.2 143.2 312 152 312H168C176.8 312 184 319.2 184 328V344C184 352.8 176.8 360 168 360H152C143.2 360 136 352.8 136 344ZM352 456C352 460.4 348.4 464 344 464H168C163.6 464 160 460.4 160 456V440C160 435.6 163.6 432 168 432H344C348.4 432 352 435.6 352 440V456ZM376 344C376 352.8 368.8 360 360 360H344C335.2 360 328 352.8 328 344V328C328 319.2 335.2 312 344 312H360C368.8 312 376 319.2 376 328V344ZM424 264C424 272.8 416.8 280 408 280H392C383.2 280 376 272.8 376 264V248C376 239.2 383.2 232 392 232H408C416.8 232 424 239.2 424 248V264Z" fill="#019386"/>
</g>
<defs>
<clipPath id="clip0">
<rect width="512" height="512" fill="white"/>
</clipPath>
</defs>
</svg>
