<svg width="616" height="512" viewBox="0 0 616 512" fill="none" xmlns="http://www.w3.org/2000/svg">
<path d="M602 118.6L537.1 15C531.3 5.7 521 0 510 0H106C95.0001 0 84.7001 5.7 78.9001 15L14.0001 118.6C-19.4999 172.1 10.2001 246.5 72.8001 255C77.3001 255.6 81.9001 255.9 86.5001 255.9C116.1 255.9 142.3 242.9 160.3 222.8C178.3 242.9 204.6 255.9 234.1 255.9C263.7 255.9 289.9 242.9 307.9 222.8C325.9 242.9 352.2 255.9 381.7 255.9C411.3 255.9 437.5 242.9 455.5 222.8C473.6 242.9 499.8 255.9 529.3 255.9C534 255.9 538.5 255.6 543 255C605.8 246.6 635.6 172.2 602 118.6V118.6ZM529.5 288C519.5 288 509.6 286.5 500 284.2V384H116V284.2C106.4 286.4 96.5001 288 86.5001 288C80.5001 288 74.4001 287.6 68.5001 286.8C62.9001 286 57.4001 284.7 52.1001 283.2V480C52.1001 497.7 66.4001 512 84.1001 512H532.1C549.8 512 564.1 497.7 564.1 480V283.2C558.7 284.8 553.3 286.1 547.7 286.8C541.6 287.6 535.6 288 529.5 288Z" fill="#019386"/>
</svg>
